<?xml version="1.0" encoding="utf-8"?>
<!-- Generator: Adobe Illustrator 25.0.0, SVG Export Plug-In . SVG Version: 6.00 Build 0)  -->
<svg version="1.1" id="Layer_1" xmlns="http://www.w3.org/2000/svg" xmlns:xlink="http://www.w3.org/1999/xlink" x="0px" y="0px"
	 viewBox="0 0 500 500" style="enable-background:new 0 0 500 500;" xml:space="preserve">
<style type="text/css">
	.st0{fill:#001E36;}
	.st1{fill:#31A8FF;}
</style>
<g id="Lightroom" transform="translate(3135 308)">
	<path id="_20" class="st0" d="M-3031.2-270.6h292.3c36.7,0,66.4,29.7,66.4,66.4V88.2c0,36.7-29.7,66.4-66.4,66.4h-292.3
		c-36.7,0-66.4-29.7-66.4-66.4v-292.3C-3097.6-240.9-3067.9-270.6-3031.2-270.6z"/>
	<path id="_39" class="st1" d="M-2875.2,34.2h-110.7c-1.9,0-2.8-1-2.8-3.1l0.1-176.3c-0.2-1.2,0.7-2.4,1.9-2.5c0.2,0,0.4,0,0.6,0
		h32.6c1-0.1,1.8,0.5,2,1.5c0,0.2,0,0.3,0,0.5l0.5,142.6h81.4c1.7,0,2.3,0.8,2,2.5l-4.7,32.3c0,0.8-0.4,1.6-1.1,2.1
		C-2874,34.1-2874.6,34.2-2875.2,34.2z"/>
	<path id="_40" class="st1" d="M-2844.1-105.4h30.6c1.7,0,3.2,1.2,3.7,2.8c0.7,1.2,1.1,2.6,1.4,3.9c0.4,1.8,0.7,3.6,0.8,5.5
		c0.2,2,0.3,4.1,0.3,6.3c5.3-6.1,11.6-11.2,18.7-15c7.5-4.3,16-6.5,24.6-6.3c0.7-0.1,1.4,0.1,1.9,0.6c0.2,0.2,0.4,0.5,0.5,0.9
		c0.1,0.3,0.1,0.7,0.1,1v34c0,1.3-0.9,2-2.8,2c-5.7-0.4-11.4,0-17,1.3c-5,1-9.9,2.6-14.6,4.7c-4.1,1.5-7.9,3.7-11.4,6.4v89
		c0,1.7-0.8,2.5-2.3,2.5h-32c-1.4,0.2-2.6-0.7-2.8-2.1c0-0.2,0-0.5,0-0.7v-96.6c0-4.1,0-8.5-0.1-13.1c-0.1-4.6-0.2-9.1-0.4-13.6
		c-0.1-3.9-0.5-7.7-1.1-11.5c-0.2-0.9,0.3-1.7,1.2-2C-2844.6-105.4-2844.3-105.4-2844.1-105.4L-2844.1-105.4z"/>
</g>
</svg>
