<?xml version="1.0" encoding="utf-8"?>
<!-- Generator: Adobe Illustrator 28.1.0, SVG Export Plug-In . SVG Version: 6.00 Build 0)  -->
<svg version="1.1" id="Calque_1" xmlns="http://www.w3.org/2000/svg" xmlns:xlink="http://www.w3.org/1999/xlink" x="0px" y="0px"
	 viewBox="0 0 2500 2438" style="enable-background:new 0 0 2500 2438;" xml:space="preserve">
<style type="text/css">
	.st0{fill:#FFFFFF;}
</style>
<path class="st0" d="M442.7,0.2h1614.6C2302.1,0.2,2500,198.2,2500,443V1995c0,244.8-197.9,442.7-442.7,442.7H442.7
	C197.9,2437.8,0,2239.8,0,1995V443C0,198.2,197.9,0.2,442.7,0.2z"/>
<g>
	<path d="M562.5,1709.6V637.8c0-7.3,3.1-11.5,10.4-11.5c17.7,0,34.4,0,58.3-1c25-1,51-1,79.2-2.1c28.1-1,58.3-1,90.6-2.1
		s63.5-1,94.8-1c85.4,0,156.2,10.4,214.6,32.3c52.1,17.7,100,46.9,139.6,85.4c33.3,33.3,59.4,74,76,118.8
		c15.6,43.8,24,88.5,24,135.4c0,89.6-20.8,163.5-62.5,221.9c-41.7,58.3-100,102.1-167.7,127.1c-70.8,26-149,35.4-234.4,35.4
		c-25,0-41.7,0-52.1-1c-10.4-1-25-1-44.8-1v334.4c1,7.3-4.2,13.5-11.5,14.6H575C566.7,1723.2,562.5,1719,562.5,1709.6L562.5,1709.6z
		 M789.6,827.3v350c14.6,1,28.1,2.1,40.6,2.1h55.2c40.6,0,81.3-6.2,119.8-18.8c33.3-9.4,62.5-29.2,85.4-55.2
		c21.9-26,32.3-61.5,32.3-107.3c1-32.3-7.3-64.6-24-92.7c-17.7-27.1-42.7-47.9-72.9-59.4c-38.5-15.6-80.2-21.9-122.9-20.8
		c-27.1,0-51,0-70.8,1C811.5,825.2,796.9,826.3,789.6,827.3L789.6,827.3z M2000,1113.8c-31.2-16.7-64.6-28.1-100-35.4
		c-38.5-8.3-77.1-13.5-116.7-13.5c-20.8-1-42.7,2.1-62.5,7.3c-13.5,3.1-25,10.4-32.3,20.8c-5.2,8.3-8.3,18.8-8.3,28.1
		c0,9.4,4.2,18.8,10.4,27.1c9.4,11.5,21.9,20.8,35.4,28.1c24,12.5,49,24,74,34.4c56.2,18.8,110.4,44.8,160.4,76
		c34.4,21.9,62.5,51,82.3,86.5c16.7,33.3,25,69.8,24,107.3c1,49-13.5,97.9-40.6,138.5c-29.2,41.7-69.8,74-116.7,92.7
		c-51,21.9-113.5,33.3-188.5,33.3c-47.9,0-94.8-4.2-141.7-13.5c-36.5-6.3-72.9-17.7-106.2-33.3c-7.3-4.2-12.5-11.5-11.5-19.8v-181.2
		c0-3.1,1-7.3,4.2-9.4c3.1-2.1,6.2-1,9.4,1c40.6,24,83.3,40.6,129.2,51c39.6,10.4,81.2,15.6,122.9,15.6c39.6,0,67.7-5.2,86.5-14.6
		c16.7-7.3,28.1-25,28.1-43.8c0-14.6-8.3-28.1-25-41.7c-16.7-13.5-51-29.2-102.1-49c-53.1-18.8-102.1-43.8-147.9-75
		c-32.3-22.9-59.4-53.1-79.2-88.5c-16.7-33.3-25-69.8-24-106.2c0-44.8,12.5-87.5,35.4-126c26-41.7,64.6-75,109.4-95.8
		c49-25,110.4-36.5,184.4-36.5c42.7,0,86.5,3.1,129.2,9.4c31.2,4.2,61.5,12.5,89.6,24c4.2,1,8.3,5.2,10.4,9.4
		c1,4.2,2.1,8.3,2.1,12.5v169.8c0,4.2-2.1,8.3-5.2,10.4C2009.4,1115.9,2004.2,1115.9,2000,1113.8L2000,1113.8z"/>
</g>
</svg>
