<?xml version="1.0" encoding="utf-8"?>
<!-- Generator: Adobe Illustrator 28.1.0, SVG Export Plug-In . SVG Version: 6.00 Build 0)  -->
<svg version="1.1" id="Calque_1" xmlns="http://www.w3.org/2000/svg" xmlns:xlink="http://www.w3.org/1999/xlink" x="0px" y="0px"
	 viewBox="0 0 2500 2438" style="enable-background:new 0 0 2500 2438;" xml:space="preserve">
<style type="text/css">
	.st0{fill:#FFFFFF;}
</style>
<path class="st0" d="M442.7,0.2h1614.6C2302.1,0.2,2500,198.2,2500,443V1995c0,244.8-197.9,442.7-442.7,442.7H442.7
	C197.9,2437.8,0,2239.8,0,1995V443C0,198.2,197.9,0.2,442.7,0.2z"/>
<g>
	<path d="M1208.3,1458.6H820.8l-79.2,244.8c-2.1,9.4-10.4,15.6-19.8,14.6H526c-11.5,0-14.6-6.3-11.5-18.8L850,733.6
		c3.1-10.4,6.2-21.9,10.4-34.4c4.2-21.9,6.2-44.8,6.2-67.7c-1-5.2,3.1-10.4,8.3-11.5h269.8c8.3,0,12.5,3.1,13.5,8.3l380.2,1072.9
		c3.1,11.5,0,16.7-10.4,16.7h-217.7c-7.3,1-14.6-4.2-16.7-11.5L1208.3,1458.6z M881.2,1247.1h264.6c-6.2-21.9-14.6-47.9-24-75
		c-9.4-28.1-18.8-58.3-28.1-89.6c-10.4-32.3-19.8-63.5-30.2-95.8c-10.4-32.3-19.8-62.5-28.1-92.7c-8.3-29.2-15.6-56.2-22.9-81.3
		h-2.1c-9.4,44.8-20.8,89.6-35.4,134.4c-15.6,50-31.2,102.1-47.9,154.2C912.5,1154.4,896.9,1203.4,881.2,1247.1L881.2,1247.1z
		 M1770.8,802.3c-34.4,1-67.7-12.5-92.7-36.5c-24-26-36.5-60.4-35.4-95.8c-1-35.4,12.5-68.8,37.5-92.7c25-24,58.3-36.5,92.7-36.5
		c40.6,0,71.9,12.5,94.8,36.5c22.9,25,35.4,58.3,34.4,92.7c1,35.4-11.5,69.8-36.5,95.8C1841.7,790.9,1806.3,804.4,1770.8,802.3
		L1770.8,802.3z M1654.2,1706.5V904.4c0-10.4,4.2-14.6,13.5-14.6H1874c9.4,0,13.5,5.2,13.5,14.6v802.1c0,11.5-4.2,16.7-13.5,16.7
		h-204.2C1659.4,1723.2,1654.2,1716.9,1654.2,1706.5z"/>
</g>
</svg>
