<?xml version="1.0" encoding="utf-8"?>
<!-- Generator: Adobe Illustrator 28.2.0, SVG Export Plug-In . SVG Version: 6.00 Build 0)  -->
<svg version="1.1" id="Calque_1" xmlns="http://www.w3.org/2000/svg" xmlns:xlink="http://www.w3.org/1999/xlink" x="0px" y="0px"
	 viewBox="0 0 2500 2438" style="enable-background:new 0 0 2500 2438;" xml:space="preserve">
<style type="text/css">
	.st0{fill:#FFFFFF;}
</style>
<path class="st0" d="M442.7,0.2h1614.7c244.7,0,442.7,197.9,442.7,442.7v1552.3c0,244.7-197.9,442.7-442.7,442.7H442.7
	C197.9,2437.8,0,2239.9,0,1995.1V442.9C0,198.1,197.9,0.2,442.7,0.2z"/>
<g>
	<path d="M981.9,1458.9H594.8l-79,245.7c-2,9.8-10.7,15.6-19.5,14.6h-196c-11.7,0-14.6-5.9-11.7-18.5L624,737.3
		c2.9-10.7,5.9-21.5,10.7-34.1c4.9-21.5,8.8-43.9,8.8-66.3c-1-4.9,2.9-10.7,8.8-11.7h270.1c6.8,0,12.7,2.9,13.7,8.8l378.3,1068.6
		c2.9,11.7,0,16.6-10.7,16.6h-217.4c-6.8,1-14.6-3.9-16.6-11.7L981.9,1458.9z M655.2,1251.2h264.2c-5.9-21.5-14.6-47.8-24.4-75.1
		c-9.8-28.3-18.5-58.5-28.3-89.7c-10.7-32.2-19.5-63.4-30.2-95.6c-10.7-32.2-19.5-62.4-28.3-92.6c-8.8-29.3-15.6-56.6-23.4-80.9h-2
		c-9.8,44.9-20.5,89.7-35.1,134.6c-15.6,49.7-31.2,102.4-47.8,154.1C687.4,1158.5,670.8,1207.3,655.2,1251.2z M2112.9,898.2v638.7
		c0,28.3,0,52.7,1,75.1c1,21.5,2,41,2.9,57.5c1.9,16.6,2.9,26.3,3.9,37.1c1,9.8-2.9,13.7-11.7,13.7h-178.4
		c-8.8,1-16.6-3.9-19.5-11.7l-5.9-26.3c-2-6.8-2-14.6-2-21.5c-33.2,30.2-74.1,51.7-118,64.4c-37.1,10.7-77,15.6-116,15.6
		s-77-4.9-113.1-17.6c-33.2-11.7-64.4-31.2-88.7-57.5c-27.3-29.3-46.8-63.4-58.5-101.4c-14.6-47.8-21.5-97.5-20.5-148.2V899.2
		c-1-5.9,2.9-12.7,10.7-13.7H1601c5.9-1,12.7,2.9,13.7,10.7v492.4c0,45.8,10.7,81.9,30.2,108.2s60.5,40,107.3,40
		c24.4,0,47.8-3.9,71.2-12.7c24.4-8.8,45.8-19.5,65.3-34.1V898.2c0-6.8,4.9-11.7,14.6-11.7h198.9c4.9-1,11.7,2.9,11.7,8.8
		C2112.9,896.3,2112.9,897.2,2112.9,898.2L2112.9,898.2z"/>
</g>
</svg>
