<?xml version="1.0" encoding="utf-8"?>
<!-- Generator: Adobe Illustrator 28.1.0, SVG Export Plug-In . SVG Version: 6.00 Build 0)  -->
<svg version="1.1" id="Calque_1" xmlns="http://www.w3.org/2000/svg" xmlns:xlink="http://www.w3.org/1999/xlink" x="0px" y="0px"
	 viewBox="0 0 2500 2438" style="enable-background:new 0 0 2500 2438;" xml:space="preserve">
<style type="text/css">
	.st0{fill:#FFFFFF;}
</style>
<path class="st0" d="M442.7,0.2h1614.6C2302.1,0.2,2500,198.2,2500,443V1995c0,244.8-197.9,442.7-442.7,442.7H442.7
	C197.9,2437.8,0,2239.8,0,1995V443C0,198.2,197.9,0.2,442.7,0.2z"/>
<g>
	<path d="M1004.2,1458.6H616.7l-79.2,245.8c-2.1,9.4-10.4,15.6-19.8,14.6H321.9c-11.5,0-14.6-6.2-11.5-18.8l335.4-961.5
		c3.1-10.4,6.2-19.8,10.4-32.3c4.2-21.9,6.2-44.8,6.2-67.7c-1-5.2,3.1-10.4,8.3-11.5h269.8c7.3,0,12.5,3.1,13.5,8.3l380.2,1062.5
		c3.1,11.5,0,16.7-10.4,16.7h-217.7c-7.3,1-14.6-4.2-16.7-11.5l-85.4-250L1004.2,1458.6L1004.2,1458.6z M677.1,1251.3h264.6
		c-6.2-21.9-14.6-47.9-24-75c-9.4-28.1-18.8-58.3-28.1-89.6c-10.4-32.3-19.8-63.5-30.2-95.8s-19.8-62.5-28.1-92.7
		c-8.3-29.2-15.6-56.2-22.9-81.2h-2.1c-9.4,44.8-20.8,89.6-35.4,134.4c-15.6,50-31.2,102.1-47.9,154.2
		C709.4,1158.6,692.7,1207.5,677.1,1251.3L677.1,1251.3z M1947.9,1364.8h-330.2c4.2,32.3,14.6,64.6,32.3,92.7
		c18.8,28.1,44.8,50,76,62.5c41.7,17.7,87.5,27.1,133.3,26c36.5-1,72.9-4.2,108.3-11.5c32.3-4.2,63.5-12.5,92.7-24
		c5.2-4.2,8.3-2.1,8.3,8.3v159.4c0,4.2-1,8.3-2.1,12.5c-2.1,3.1-4.2,5.2-7.3,7.3c-33.3,14.6-67.7,25-104.2,31.2
		c-49,9.4-97.9,13.5-147.9,12.5c-79.2,0-145.8-12.5-200-36.5c-51-21.9-95.8-56.2-131.2-99c-33.3-40.6-57.3-86.5-71.9-136.5
		c-14.6-49-21.9-100-21.9-152.1c0-56.2,8.3-111.5,26-165.6c16.7-52.1,42.7-100,78.1-142.7c34.4-41.7,77.1-75,126-99
		s107.3-32.3,174-32.3c55.2-1,110.4,9.4,161.5,32.3c42.7,18.8,80.2,46.9,109.4,83.3c27.1,35.4,49,75,62.5,118.8
		c13.5,41.7,19.8,84.4,19.8,127.1c0,25-1,46.9-2.1,66.7c-2.1,19.8-3.1,34.4-4.2,43.8c-1,7.3-7.3,13.5-14.6,13.5
		c-6.2,0-17.7,1-34.4,2.1c-16.7,2.1-36.5,3.1-60.4,3.1S1975,1364.8,1947.9,1364.8L1947.9,1364.8z M1617.7,1212.8h219.8
		c27.1,0,46.9,0,59.4-1c8.3-1,16.7-3.1,24-8.3V1193c0-13.5-2.1-26-6.2-38.5c-18.8-58.3-74-97.9-135.4-95.8
		c-57.3-3.1-111.5,27.1-138.5,79.2C1628.1,1161.7,1620.8,1186.7,1617.7,1212.8L1617.7,1212.8z"/>
</g>
</svg>
