<?xml version="1.0" encoding="utf-8"?>
<!-- Generator: Adobe Illustrator 28.1.0, SVG Export Plug-In . SVG Version: 6.00 Build 0)  -->
<svg version="1.1" id="Calque_1" xmlns="http://www.w3.org/2000/svg" xmlns:xlink="http://www.w3.org/1999/xlink" x="0px" y="0px"
	 viewBox="0 0 2500 1992" style="enable-background:new 0 0 2500 1992;" xml:space="preserve">
<style type="text/css">
	.st0{fill-rule:evenodd;clip-rule:evenodd;fill:#FFFFFF;}
</style>
<path class="st0" d="M519.3,0.2c-142.6,0-248.2,124.9-243.5,260.3c4.5,130.1-1.4,298.6-43.8,436c-42.5,137.7-114.5,225-232,236.2
	v126.5c117.5,11.2,189.5,98.5,232,236.3c42.4,137.4,48.3,305.9,43.8,436c-4.7,135.4,100.8,260.3,243.5,260.3H1981
	c142.6,0,248.2-124.9,243.5-260.3c-4.5-130.1,1.4-298.6,43.8-436c42.6-137.8,114.3-225.1,231.8-236.3V932.7
	c-117.5-11.2-189.3-98.5-231.8-236.3c-42.4-137.4-48.3-305.9-43.8-436C2229.2,125,2123.7,0.1,1981,0.1L519.3,0.2L519.3,0.2z
	 M1694.9,1226.2c0,186.4-139.1,299.5-369.9,299.5H932.2c-23.4,0-42.4-19-42.4-42.4l0,0V508.7c0-23.4,19-42.4,42.4-42.4h390.6
	c192.4,0,318.7,104.2,318.7,264.3c0,112.3-85,212.9-193.2,230.5v5.9C1595.7,983.1,1694.9,1085.2,1694.9,1226.2L1694.9,1226.2z
	 M1282.2,600.7h-224v316.4h188.7c145.8,0,226.3-58.7,226.3-163.7C1473.1,655,1404,600.7,1282.2,600.7L1282.2,600.7z M1058.2,1042.6
	v348.7h232.2c151.9,0,232.3-60.9,232.3-175.4s-82.7-173.3-242.1-173.3H1058.2L1058.2,1042.6z"/>
</svg>
