<?xml version="1.0" encoding="utf-8"?>
<!-- Generator: Adobe Illustrator 28.1.0, SVG Export Plug-In . SVG Version: 6.00 Build 0)  -->
<svg version="1.1" id="Calque_1" xmlns="http://www.w3.org/2000/svg" xmlns:xlink="http://www.w3.org/1999/xlink" x="0px" y="0px"
	 viewBox="0 0 2500 2500" style="enable-background:new 0 0 2500 2500;" xml:space="preserve">
<style type="text/css">
	.st0{fill:#FFFFFF;}
</style>
<circle class="st0" cx="1250" cy="1250" r="1250"/>
<path d="M1279.1,1271.07c36.56-32.11,66.23-62.36,105.37-78.85c22.94-9.61,48.31-23.23,70.11-2.15
	c21.79,21.07,8.03,44.16,1.43,66.81c-13.19,45.45-26.52,91.04-38.57,136.77c-3.58,13.33-9.61,28.67,4.01,40.57
	c13.62,11.9,30.68,4.01,44.16-2.87c49.89-25.52,90.46-55.77,84.16-122.86c-3.73-40.14,0-82.86,37.13-111.54
	c14.34-11.33,31.68-24.52,49.89-11.9s5.16,28.67,0,43.01c-17.61,54.07-22.52,111.47-14.34,167.74c1.86,12.62,0,30.82,11.61,35.41
	c15.91,6.02,23.08-14.34,33.26-22.65c10.18-8.32,17.06-20.07,25.95-29.82c23.51-25.66,36.41-46.16,5.16-81.29
	c-36.27-40.57-25.38-120,10.32-157.7c20.1-24.18,53.39-32.83,82.72-21.5c31.11,11.33,41.29,38.14,42.15,69.53
	c0.86,35.27-14.34,66.23-26.24,100.36c34.69,8.75,56.2-10.75,75.7-31.83c47.02-51.04,101.5-83.44,173.76-75.84
	c52.33,5.45,82.29,33.69,79.57,74.84c-3.56,31.47-31.95,54.1-63.42,50.54c-6.45-0.73-12.74-2.55-18.58-5.38
	c-16.34-8.75-14.34-16.77,0-25.09c11.39-4.94,17.16-17.72,13.33-29.53c-4.62-13.95-17.29-23.67-31.97-24.52
	c-19.74-2.94-39.87,1.56-56.49,12.62c-52.47,33.55-81.86,126.73-57.35,183.51c14.34,34.12,41,40.57,68.67,16.34
	c15.27-14.63,26.78-32.73,33.55-52.76c4.05-12.48,9.79-24.35,17.06-35.27c13.05-17.35,31.11-32.69,53.76-23.37
	c22.65,9.32,11.04,32.83,7.31,48.74c-13.33,55.2-24.66,108.96,22.08,155.41c4.91,4.49,5.25,12.1,0.76,17.01
	c-0.24,0.27-0.5,0.52-0.76,0.76c-5.8,5.69-14.62,6.96-21.79,3.15c-32.74-11.48-59.56-35.52-74.55-66.81
	c-4.73-10.32-6.74-25.38-23.51-10.61c-29.92,30.66-77.84,34.63-112.4,9.32c-40.72-26.09-55.34-65.23-51.61-112.11
	c0.72-9.18,1.86-18.06,3.01-28.67c-46.88,3.87-85.02,14.34-111.82,57.35c-23.25,35.54-54.92,64.79-92.18,85.16
	c-48.89,28.67-67.95,19.78-81.14-33.98c-1.86-7.45-3.44-14.34-6.31-28.67c-31.76,28.44-68.12,51.27-107.52,67.53
	c-74.12,26.38-117.13-7.6-106.23-86.02c6.72-40.28,17.83-79.7,33.12-117.56c3.44-9.32,11.76-20.79,0-28.67
	c-8.6-5.45-17.63,3.73-24.37,9.46c-45.73,38.85-86.02,81.86-99.21,143.37c-3.06,18.14-8.26,35.84-15.48,52.76
	c-8.96,23.27-32.6,37.45-57.35,34.41c-25.81-4.59-9.18-30.97-16.34-47.17c-27.53,14.34-53.91,28.67-81.14,41.15
	c-19.64,9.03-45.3,16.2-59.64-0.72c-23.94-28.67-40.14-18.78-65.37-2.72c-36.84,23.51-79.14,13.48-112.54-25.38
	c-16.92-19.64-25.66-18.35-42.01-0.86c-33.09,34.14-72.41,61.64-115.84,81c-170.46,81-338.05-9.89-347.52-197.7
	c-11.18-212.04,78.99-380.78,256.19-498.48c46.36-32.19,104.7-41.93,158.99-26.52c64.86,16.96,108.76,77.3,104.94,144.23
	c-4.29,63.9-49.47,117.67-111.68,132.9c-10.18,2.29-23.37,6.31-28.67-3.3c-8.03-12.9,4.73-21.65,13.48-28.67
	c47.88-40.43,56.06-93.04,47.02-150.82c-8.6-53.91-47.02-75.7-98.21-56.06c-36.74,15.25-69.14,39.33-94.33,70.11
	c-84.67,93.55-137.6,211.47-151.25,336.91c-6.9,54.15,2.75,109.13,27.67,157.7c36.41,69.53,98.21,100.36,174.48,82.29
	c60.35-15.09,115.74-45.62,160.71-88.6c12.73-13.31,19.55-31.2,18.92-49.6c10.47-108.96,104.66-190.68,209.89-182.65
	c25.38,0.79,49.56,11.01,67.81,28.67c17.78,16.63,23.12,42.66,13.33,64.94c-10.18,24.66-32.83,32.69-58.49,31.4
	c-10.9,1.18-21.67-3.18-28.67-11.61c-9.46-14.34,8.6-15.34,14.34-22.51c16.06-20.07,7.02-44.01-20.5-49.6
	c-27.73-6.23-56.66,2.98-75.7,24.09c-39.54,40.15-57.45,96.81-48.17,152.4c2.87,21.22,11.9,42.01,35.27,48.31
	s38.57-11.18,52.9-27.53c10.61-13.56,18.28-29.18,22.51-45.88c3.43-15.69,11.95-29.8,24.23-40.14
	c14.34-11.04,30.11-20.07,47.02-10.18c16.92,9.89,6.59,26.52,6.59,40.29c0,25.23-27.24,54.62,6.45,73.98
	c18.06,10.32,90.89-44.59,96.63-70.39c9.03-41.15,16.34-82.72,24.52-124.01c1.01-14.55,6.52-28.43,15.77-39.71
	c14.26-16.26,37.11-21.97,57.35-14.34c21.65,9.03,10.9,28.67,8.75,45.3C1283.55,1244.12,1281.83,1254.16,1279.1,1271.07
	L1279.1,1271.07z M1763.39,1175.59c-3.73-10.04-9.75-19.78-22.08-18.49c-12.33,1.29-15.91,12.62-16.92,23.23
	c-3.2,31.86,9,63.34,32.83,84.73C1770.76,1237.15,1772.97,1205.09,1763.39,1175.59z"/>
</svg>
