<?xml version="1.0" encoding="utf-8"?>
<!-- Generator: Adobe Illustrator 28.1.0, SVG Export Plug-In . SVG Version: 6.00 Build 0)  -->
<svg version="1.1" id="Calque_1" xmlns="http://www.w3.org/2000/svg" xmlns:xlink="http://www.w3.org/1999/xlink" x="0px" y="0px"
	 viewBox="0 0 458.9 688.4" style="enable-background:new 0 0 458.9 688.4;" xml:space="preserve">
<style type="text/css">
	.st0{fill:#FFFFFF;}
</style>
<path class="st0" d="M229.3,344.3c0-63.2,51.3-114.8,114.8-114.8c63.2,0,114.8,51.3,114.8,114.8c0,63.2-51.3,114.8-114.8,114.8
	C280.8,459.1,229.3,407.6,229.3,344.3L229.3,344.3z"/>
<path class="st0" d="M0,573.6c0-63.2,51.3-114.8,114.8-114.8h114.8v114.8c0,63.2-51.3,114.8-114.8,114.8S0,637.1,0,573.6L0,573.6z"
	/>
<path class="st0" d="M229.3,0.3v229.3h114.8c63.2,0,114.8-51.3,114.8-114.8C458.9,51.6,407.6,0,344.1,0H229.3V0.3z"/>
<path class="st0" d="M0,115c0,63.2,51.3,114.8,114.8,114.8h114.8V0.3H114.8C51.3,0.3,0,51.5,0,115z"/>
<path class="st0" d="M0,344.3c0,63.2,51.3,114.8,114.8,114.8h114.8V229.6H114.8C51.3,229.6,0,281.1,0,344.3z"/>
</svg>
