<?xml version="1.0" encoding="utf-8"?>
<!-- Generator: Adobe Illustrator 28.1.0, SVG Export Plug-In . SVG Version: 6.00 Build 0)  -->
<svg version="1.1" id="Calque_1" xmlns="http://www.w3.org/2000/svg" xmlns:xlink="http://www.w3.org/1999/xlink" x="0px" y="0px"
	 viewBox="0 0 382.93 435.67" style="enable-background:new 0 0 382.93 435.67;" xml:space="preserve">
<style type="text/css">
	.st0{fill:#FFFFFF;}
</style>
<g>
	<path class="st0" d="M191.55,170.79c15.68-1.14,31.39-1.92,47.02-3.49c29.94-2.99,59.08-9.54,86.77-21.57
		c18.14-7.88,34.96-17.76,47.53-33.65c11.68-14.78,13.12-31.94,3.76-48.18c-6.85-11.9-17.02-20.46-28.45-27.53
		c-30.8-19.05-65.1-27.59-100.46-32.56c-27.97-3.93-56.1-4.72-84.3-2.8c-36.37,2.48-71.89,8.8-105.57,23.3
		c-18.17,7.82-35.16,17.56-47.53,33.61C2.74,67.75-1.4,78.68,0.79,91.43c1.97,11.46,8.17,20.5,16.2,28.37
		c15.42,15.1,34.4,24.25,54.42,31.39C110.24,165.02,150.52,169.81,191.55,170.79z M0.09,116.43c0,19.03-0.06,38.07,0.03,57.1
		c0.03,7.16,2,13.84,5.52,20.13c6.96,12.4,17.37,21.29,29.16,28.67c25.14,15.72,53.02,24.04,81.84,29.55
		c30.29,5.79,60.89,7.53,91.69,6.39c26.57-0.98,52.81-4.32,78.57-10.98c25.52-6.6,50.08-15.55,71.15-31.98
		c12.3-9.59,22.32-21.02,24.42-37.32c0.63-4.87,0.38-9.87,0.39-14.81c0.04-15.62,0.02-31.24,0.02-45.34
		c-3.06,5.45-6,12.42-10.43,18.25c-12.53,16.5-30.17,26.13-48.79,34.05c-27.08,11.52-55.52,17.62-84.67,20.9
		c-42.13,4.74-84.04,3.49-125.66-4.7c-27.61-5.44-54.29-13.67-78.36-28.74C19.06,147.62,5.63,135.37,0.09,116.43z M382.82,206.64
		c-3.11,5.45-6.16,12.51-10.69,18.43c-12.2,15.94-29.29,25.38-47.3,33.17c-30.26,13.08-62.22,19.42-94.86,22.42
		c-32.79,3.02-65.56,2.28-98.17-2.55c-29.91-4.44-58.99-11.76-86.04-25.74c-12.45-6.44-24.35-13.87-33.06-25.05
		c-5.16-6.62-8.96-14.3-12.63-20.3c0,12.23-0.03,26.17,0.01,40.1c0.02,6.44-0.36,12.95,0.41,19.31
		c1.99,16.5,12.23,27.95,24.66,37.66c17.98,14.04,38.73,22.54,60.41,28.85c42.44,12.35,85.82,15.98,129.83,13.55
		c32.76-1.8,64.86-7.04,95.85-18.06c20.17-7.17,39.29-16.37,54.82-31.6c9.32-9.14,16.4-19.76,16.66-33.3
		C383.1,244.07,382.82,224.6,382.82,206.64z M0.15,292.63c0,20.38-0.06,39.99,0.07,59.59c0.02,2.95,0.66,5.96,1.46,8.82
		c3.79,13.45,12.7,23.25,23.39,31.56c18.38,14.28,39.56,22.84,61.67,29.27c32.13,9.34,65.02,13.34,98.42,13.76
		c42.67,0.53,84.59-4.17,125.09-18.29c20.64-7.19,40.19-16.52,56-32.14c9.41-9.29,16.34-20.09,16.53-33.82
		c0.27-19.33,0.07-38.66,0.07-56.39c-3.03,5.38-6.12,12.37-10.53,18.4c-9.12,12.49-21.9,20.7-35.44,27.7
		c-27.6,14.26-57.31,21.67-87.82,25.91c-40.14,5.57-80.35,5.38-120.44-0.81c-28.83-4.45-56.92-11.63-82.89-25.3
		C25.42,330.18,7.22,317.09,0.15,292.63z"/>
	<path class="st0" d="M191.55,170.79c-41.03-0.99-81.31-5.77-120.13-19.61c-20.02-7.14-39-16.29-54.42-31.39
		c-8.03-7.87-14.23-16.91-16.2-28.37c-2.19-12.74,1.95-23.67,9.53-33.51C22.7,41.87,39.7,32.13,57.86,24.3
		C91.54,9.8,127.06,3.48,163.43,1c28.2-1.92,56.32-1.14,84.3,2.8c35.36,4.97,69.66,13.51,100.46,32.56
		c11.43,7.07,21.6,15.63,28.45,27.53c9.35,16.24,7.92,33.41-3.76,48.18c-12.57,15.9-29.39,25.77-47.53,33.65
		c-27.69,12.04-56.83,18.58-86.77,21.57C222.93,168.87,207.22,169.66,191.55,170.79z"/>
	<path class="st0" d="M0.09,116.43c5.53,18.94,18.96,31.2,34.89,41.17c24.07,15.07,50.75,23.3,78.36,28.74
		c41.62,8.2,83.52,9.45,125.66,4.7c29.14-3.28,57.59-9.38,84.67-20.9c18.62-7.92,36.26-17.55,48.79-34.05
		c4.43-5.83,7.37-12.8,10.43-18.25c0,14.1,0.03,29.72-0.02,45.34c-0.01,4.94,0.24,9.94-0.39,14.81
		c-2.11,16.3-12.12,27.73-24.42,37.32c-21.07,16.43-45.63,25.38-71.15,31.98c-25.75,6.66-52,10-78.57,10.98
		c-30.79,1.13-61.39-0.6-91.69-6.39c-28.83-5.51-56.71-13.83-81.84-29.55c-11.79-7.38-22.21-16.27-29.16-28.67
		c-3.53-6.29-5.49-12.97-5.52-20.13C0.04,154.49,0.09,135.46,0.09,116.43z"/>
	<path class="st0" d="M382.82,206.64c0,17.96,0.28,37.43-0.09,56.89c-0.26,13.54-7.34,24.16-16.66,33.3
		c-15.52,15.23-34.65,24.42-54.82,31.6c-30.99,11.02-63.1,16.26-95.85,18.06c-44.01,2.43-87.39-1.2-129.83-13.55
		c-21.68-6.31-42.43-14.81-60.41-28.85c-12.43-9.71-22.67-21.16-24.66-37.66c-0.77-6.36-0.39-12.87-0.41-19.31
		c-0.05-13.94-0.01-27.88-0.01-40.1c3.67,6,7.47,13.68,12.63,20.3c8.7,11.18,20.6,18.62,33.06,25.05
		c27.05,13.98,56.13,21.31,86.04,25.74c32.61,4.84,65.38,5.57,98.17,2.55c32.63-3,64.59-9.34,94.86-22.42
		c18-7.78,35.09-17.23,47.3-33.17C376.66,219.15,379.72,212.1,382.82,206.64z"/>
	<path class="st0" d="M0.15,292.63c7.07,24.46,25.26,37.55,45.59,48.26c25.97,13.67,54.06,20.85,82.89,25.3
		c40.09,6.19,80.3,6.38,120.44,0.81c30.51-4.23,60.22-11.65,87.82-25.91c13.53-6.99,26.32-15.2,35.44-27.7
		c4.4-6.03,7.5-13.01,10.53-18.4c0,17.73,0.2,37.06-0.07,56.39c-0.19,13.73-7.12,24.53-16.53,33.82
		c-15.81,15.62-35.37,24.95-56,32.14c-40.5,14.12-82.42,18.82-125.09,18.29c-33.4-0.42-66.29-4.42-98.42-13.76
		c-22.12-6.43-43.29-14.99-61.67-29.27c-10.69-8.3-19.59-18.11-23.39-31.56c-0.81-2.86-1.44-5.87-1.46-8.82
		C0.09,332.62,0.15,313.01,0.15,292.63z"/>
</g>
</svg>
