<?xml version="1.0" encoding="UTF-8"?>
<svg id="Calque_1" data-name="Calque 1" xmlns="http://www.w3.org/2000/svg" version="1.1" viewBox="0 0 2500 2500">
  <defs>
    <style>
      .cls-1 {
        fill: #fff;
        stroke-width: 0px;
      }
    </style>
  </defs>
  <path class="cls-1" d="M2452.9,1138.6L1361.3,47.1c-62.8-62.9-164.8-62.9-227.7,0l-226.7,226.7,287.5,287.5c66.8-22.6,143.4-7.4,196.7,45.8,53.5,53.6,68.6,130.9,45.4,197.9l277.1,277.1c67-23.1,144.4-8.2,197.9,45.5,74.8,74.8,74.8,196,0,270.9-74.9,74.9-196.1,74.9-271,0-56.3-56.3-70.2-139-41.7-208.4l-258.4-258.4v680c18.7,9.3,35.8,21.5,50.6,36.2,74.8,74.8,74.8,196.1,0,271-74.9,74.8-196.2,74.8-270.9,0-74.8-74.9-74.8-196.2,0-271,17.9-17.9,39.2-32.2,62.7-41.8v-686.4c-23.5-9.6-44.8-23.8-62.7-41.8-56.7-56.6-70.3-139.8-41.3-209.4l-283.4-283.5L47.2,1133.6c-62.9,62.9-62.9,164.9,0,227.8l1091.5,1091.5c62.8,62.9,164.8,62.9,227.7,0l1086.4-1086.4c62.9-62.9,62.9-164.9,0-227.8"/>
</svg>