<?xml version="1.0" encoding="utf-8"?>
<!-- Generator: Adobe Illustrator 28.1.0, SVG Export Plug-In . SVG Version: 6.00 Build 0)  -->
<svg version="1.1" id="Calque_1" xmlns="http://www.w3.org/2000/svg" xmlns:xlink="http://www.w3.org/1999/xlink" x="0px" y="0px"
	 viewBox="0 0 2500 2432" style="enable-background:new 0 0 2500 2432;" xml:space="preserve">
<style type="text/css">
	.st0{fill:#FFFFFF;}
</style>
<g>
	<path class="st0" d="M1245.17,0C557.57,0,0,557.47,0,1245.17c0,550.16,356.78,1016.89,851.52,1181.54
		c62.23,11.52,85.08-27.01,85.08-59.9c0-29.69-1.16-127.78-1.69-231.83C588.5,2210.3,515.4,1988.07,515.4,1988.07
		c-56.64-143.93-138.25-182.19-138.25-182.19c-112.97-77.29,8.52-75.7,8.52-75.7c125.04,8.79,190.88,128.32,190.88,128.32
		c111.05,190.36,291.29,135.32,362.34,103.52c11.17-80.49,43.45-135.41,79.05-166.5c-276.56-31.49-567.3-138.26-567.3-615.37
		c0-135.94,48.64-247.02,128.3-334.22C566.01,814.55,523.39,687.91,591,516.4c0,0,104.56-33.47,342.51,127.64
		c99.32-27.6,205.84-41.43,311.66-41.89c105.82,0.47,212.42,14.3,311.93,41.89c237.67-161.1,342.08-127.64,342.08-127.64
		c67.77,171.51,25.14,298.15,12.21,329.52c79.83,87.2,128.14,198.27,128.14,334.22c0,478.24-291.29,583.55-568.55,614.38
		c44.66,38.64,84.45,114.42,84.45,230.59c0,166.6-1.45,300.69-1.45,341.71c0,33.13,22.41,71.96,85.54,59.74
		c494.47-164.83,850.8-631.41,850.8-1181.38C2490.32,557.47,1932.83,0,1245.17,0"/>
	<path class="st0" d="M466.36,1773.77c-2.73,6.18-12.48,8.04-21.34,3.8c-9.03-4.06-14.11-12.5-11.18-18.71
		c2.69-6.37,12.43-8.14,21.45-3.87C464.34,1759.04,469.49,1767.56,466.36,1773.77 M527.61,1828.42c-5.94,5.51-17.55,2.95-25.43-5.75
		c-8.14-8.68-9.67-20.28-3.64-25.88c6.12-5.5,17.38-2.93,25.55,5.76C532.23,1811.33,533.81,1822.86,527.61,1828.42 M569.63,1898.34
		c-7.64,5.3-20.12,0.33-27.82-10.74c-7.63-11.06-7.63-24.35,0.17-29.67c7.73-5.32,20.02-0.54,27.83,10.45
		C577.42,1879.64,577.42,1892.92,569.63,1898.34 M640.68,1979.33c-6.83,7.52-21.36,5.51-32-4.77
		c-10.88-10.04-13.92-24.29-7.07-31.82c6.9-7.54,21.52-5.42,32.25,4.77C644.67,1957.53,647.97,1971.88,640.68,1979.33
		 M732.52,2006.67c-3,9.75-17,14.18-31.1,10.04c-14.08-4.27-23.3-15.69-20.46-25.55c2.93-9.81,16.99-14.43,31.2-10
		C726.22,1985.41,735.46,1996.75,732.52,2006.67 M837.05,2018.26c0.35,10.27-11.61,18.79-26.42,18.97
		c-14.89,0.32-26.93-7.99-27.09-18.09c0-10.37,11.69-18.81,26.57-19.05C824.92,1999.8,837.05,2008.06,837.05,2018.26
		 M939.73,2014.33c1.78,10.02-8.52,20.31-23.21,23.05c-14.45,2.64-27.83-3.55-29.68-13.48c-1.8-10.27,8.69-20.56,23.12-23.22
		C924.68,1998.12,937.85,2004.14,939.73,2014.33"/>
</g>
</svg>
