<?xml version="1.0" encoding="UTF-8"?>
<svg id="Calque_1" data-name="Calque 1" xmlns="http://www.w3.org/2000/svg" version="1.1" viewBox="0 0 2481 2500">
  <defs>
    <style>
      .cls-1 {
        fill: #fff;
        stroke-width: 0px;
      }
    </style>
  </defs>
  <path class="cls-1" d="M2477.4,344.6c0-180.3-146.2-326.5-326.5-326.5s-300.7,121.9-323.1,280.3l-3.3-1.7c-267-120.4-491.9,92.9-491.9,92.9l-594.9,597.8,235,226.4,478.8-470.4c223.6-223.6,345.3-72.3,345.3-72.3,168.3,142.2,5.8,310.5,5.8,310.5l240.9,232.2c196.7-212.4,208.1-397.8,148.3-545.3,161-20.2,285.5-157.4,285.5-323.8"/>
  <path class="cls-1" d="M2194.9,1846c1.1-2.1,1.7-3.3,1.7-3.3,120.4-267-92.9-491.9-92.9-491.9l-597.8-594.9-226.3,235.1,470.4,478.8c223.6,223.6,72.2,345.3,72.2,345.3-142.2,168.3-310.5,5.8-310.5,5.8l-232.2,240.9c212.4,196.7,397.8,208.1,545.3,148.3,20.2,161,157.4,285.5,323.8,285.5s326.5-146.2,326.5-326.5-121.9-300.7-280.3-323.2"/>
  <path class="cls-1" d="M1511.1,1289.1l-478.8,470.4c-223.6,223.6-345.3,72.3-345.3,72.3-168.3-142.2-5.8-310.5-5.8-310.5l-240.8-232.2c-196.7,212.4-208.1,397.8-148.3,545.3-161,20.2-285.5,157.4-285.5,323.8s146.2,326.5,326.5,326.5c164.6,0,300.7-121.9,323.1-280.3,2.1,1.1,3.3,1.7,3.3,1.7,267,120.4,491.9-92.9,491.9-92.9l594.9-597.8-235-226.3"/>
  <path class="cls-1" d="M733.8,1033.1c-223.6-223.6-72.3-345.3-72.3-345.3,142.2-168.3,310.5-5.8,310.5-5.8l232.2-240.8c-212.4-196.7-397.8-208.1-545.3-148.3C638.7,131.8,501.5,7.2,335,7.2S8.6,153.4,8.6,333.7c0,164.6,121.9,300.7,280.3,323.2-1.1,2.1-1.7,3.3-1.7,3.3-120.4,267,92.9,491.9,92.9,491.9l597.8,594.9,226.3-235-470.4-478.8"/>
</svg>