<?xml version="1.0" encoding="utf-8"?>
<!-- Generator: Adobe Illustrator 28.1.0, SVG Export Plug-In . SVG Version: 6.00 Build 0)  -->
<svg version="1.1" id="Calque_1" xmlns="http://www.w3.org/2000/svg" xmlns:xlink="http://www.w3.org/1999/xlink" x="0px" y="0px"
	 viewBox="0 0 2500 2282" style="enable-background:new 0 0 2500 2282;" xml:space="preserve">
<style type="text/css">
	.st0{fill:#FFFFFF;}
</style>
<path class="st0" d="M321.9,1471c2.1,4.8,4.5,9.3,7.1,13.7c1.2,2.6,2.9,5.3,4.4,7.7c2.4,4.8,5,9.5,7.5,14.1l14.6,24.5
	c2.7,4.5,5.3,9,8.4,13.5c5.1,8.7,11.1,17.3,16.4,26c2.4,3.6,4.6,7.2,7.3,10.9c10.2,15.9,19.5,29.1,29.4,41.9
	c7.1,9.6,14.1,18.9,21.7,28.3c2.5,3.5,5.3,7.1,7.9,10.6l20.5,24.9c2.5,2.9,5,6.2,7.7,9.2c9.1,11,18.8,21.5,28.4,32.3
	c0,0.2,0.3,0.4,0.5,0.6c12,15,24.9,28.4,39,40.3l0.4,0.4c7.4,7.6,14.9,15.1,22.7,22.6l9.4,9c10.3,9.7,20.6,19.2,31.5,28.5
	c0.2,0,0.3,0.2,0.5,0.3l5.3,4.6c9.5,8.3,19,16.4,28.8,24l11.6,9.7c7.9,6.3,16.1,12.3,24.1,18.5l12.6,9.7
	c8.6,6.5,17.8,12.8,26.6,19.1c3.2,2.3,6.5,4.6,9.8,6.8l2.7,2.1l26.1,17.1l11.1,7.4c13.6,8.7,27.2,16.9,40.8,25.1
	c3.9,1.9,7.8,4.1,11.4,6.3c10,5.8,20.4,11.6,30.5,16.9c5.6,3.2,11.3,5.8,17.1,8.7c7,3.9,14.2,7.7,21.6,11.6c2,0.6,3.7,1.3,5.4,2.2
	l0.4-0.4c3.1,1.4,5.9,2.9,8.9,4.4c11.1,5.6,22.7,10.9,34.8,16.1c2.2,0.9,4.6,1.9,7.1,3.2c13.4,5.8,26.7,11.4,40.6,16.8
	c3.2,0.9,6.5,2.5,9.7,3.7c12.5,4.7,25.4,9.6,38.2,14.1l4.6,1.7c14.2,4.8,28.2,9.5,42.7,13.8c3.3,0.9,6.8,2.1,10.3,3.1
	c14.8,4.5,29.1,9.7,44,12.5c953.7,172.9,1230.8-570.5,1230.8-570.5c-232.8,301.7-646,381.3-1037.3,292.7c-14.5-3.3-29-8-43.6-12.3
	c-20.7-5.9-41.2-12.3-61.5-19.4l8.8,2.7l-5.8-2.2c-12.6-4.3-24.8-9-37.1-13.7c-3-1.3-6.1-2.5-9.2-3.5l-1-0.3
	c-13.6-5.5-26.9-11-40.1-16.9c-2.9-0.9-5.3-2.2-8.2-3.3c-15.6-6.8-31.1-13.9-46.4-21.4l12.8,5.7c-3.3-1.5-6.6-3.1-9.8-4.8
	c-8.7-4.1-17.5-8.7-26-13.1c-6.5-3.1-12.9-6.4-19.2-9.8l1.9,0.9c-10.5-5.6-21-11.6-31.6-17.3c-3.2-2.2-6.8-4.1-10.4-6.1
	c-15.7-9.1-31.3-18.6-46.6-28.4l5.8,3.5c-3.9-2.4-7.8-5-11.5-7.7l0.6,0.4c-10-6.1-19.8-12.6-29.3-19.3c-3.2-2-6-4.3-9.3-6.5
	c-10-6.8-19.8-13.9-29.5-21.2l2.2,1.6c-3.9-3.2-8.1-6.1-12.3-9.2c-8.2-6.4-16.4-12.5-24.6-19.2l-11-8.7
	c-11.7-9.3-23.1-18.9-34.3-28.7l-0.1-0.1l-32.2-29.2l-9.3-8.7c-7.6-7.7-15.4-15-23.2-22.7l-9-9.3c-9.6-9.5-19-19.3-28.1-29.2
	l-0.6-0.6l-1.6-1.3c-9.8-10.8-19.5-21.7-29.1-32.8c-2.5-2.9-4.8-5.9-7.4-9l-21.1-25.5c-9.5-11.9-18.8-24-27.8-36.3l-3.7-5.2
	c-217-294.8-295.6-701.7-121.9-1035.5L332.9,501.3c-197.3,282.1-172.9,649-22,948.6C314.4,1457.2,318.2,1464.1,321.9,1471
	L321.9,1471z"/>
<path d="M986.3,1064.6l-1-1.5l-0.8-1.1L986.3,1064.6z"/>
<path class="st0" d="M1090.1,1186.4l8.4,8.4c10.6,10.2,21.4,20.1,32.5,30.1l1.4,1.2c11.1,9.8,23.7,20.1,36.6,30.2l1.9,1.5
	c3.2,2.1,5.8,4.6,8.9,6.8c13,10,26.1,19.6,39.7,29.1l1.4,0.8c5.8,4.2,11.9,8,18.4,12.1c2.6,1.7,5.6,3.9,8.4,5.6
	c9.8,6.3,19.5,12.2,29.4,18.2c1.6,0.6,3,1.5,4.5,2.1c8.4,5.1,17.5,10,26.2,14.5c3.1,1.9,6,3.2,9.2,5c6.2,3.1,12.3,6.3,18.3,9.5
	l3,1.3c12.5,6.1,25.3,11.9,37.9,17.5c3.2,1.2,5.8,2.2,8.5,3.5c10.3,4.5,20.8,8.7,31.1,12.6c4.6,1.6,9,3.4,13.4,4.8
	c9.5,3.5,19.4,6.8,28.8,10l13,4.2c13.6,4.2,27.3,9.7,41.7,11.9c736.4,121.2,906.9-442.9,906.9-442.9
	c-153.5,219.7-450.4,324.4-766.9,242.7c-15.8-4-31.5-8.5-47-13.5l5.3,1.5c-4.5-1.2-8.4-2.6-12.6-3.9c-9.7-3.3-19.6-6.6-29-10
	l-13.4-5c-10.4-4.2-21-8.1-31.1-12.5c-3.2-1.4-6-2.3-8.4-3.7c-13-5.8-26.1-11.6-38.8-17.7l-19.1-9.9l-11-5.6
	c-8.5-4.5-16.4-9.1-24.6-13.8c-2.1-1-4.1-2.1-6-3.3l0.3,0.1c-9.8-6.1-20.1-12.1-29.5-18.3c-3.2-1.8-6-3.9-9-5.8l-19.3-12.5
	c-13.4-9.3-26.5-19.2-39.7-28.9c-3-2.7-5.8-4.9-8.7-7.3c-139.2-108.9-248.9-257.7-301-426.2c-54.9-175.2-42.8-371.6,52-531
	L945.2,263.7c-143.1,204.3-135,477.4-23.6,693.5c20.3,39.9,40.9,73.6,63.7,105.7c21.2,30.3,44.6,65.7,72.8,90
	C1068.1,1164.5,1078.9,1175.3,1090.1,1186.4L1090.1,1186.4z"/>
<path d="M417.5,1623.8l-0.4-0.6l-0.6-0.8L417.5,1623.8z M803.5,1554.8l0.9,0.6l0.2,0.3L803.5,1554.8z"/>
<path class="st0" d="M1460,86.1c-84.4,123.2-92.5,276.2-34.3,412c61.7,144.3,187.9,257.5,334.9,311.2c6,2.3,11.9,4.3,18.1,6.5
	l8.2,2.5c8.5,2.7,17.2,5.8,26,7.8c406.7,78.1,516.8-207.8,546.4-249.8c-96.8,138.3-259.2,171.6-458.4,123.4
	c-17.3-4.2-34.4-9.5-51.1-15.8l3.1,1c-20.8-7.2-41.1-15.6-60.9-25.1l3.5,1.6c-38.1-18.6-70.7-38.6-101.1-61.6
	c-178-134.7-288.1-391-171.9-599.8L1460,86.1z"/>
</svg>
