<?xml version="1.0" encoding="utf-8"?>
<!-- Generator: Adobe Illustrator 28.1.0, SVG Export Plug-In . SVG Version: 6.00 Build 0)  -->
<svg version="1.1" id="Calque_1" xmlns="http://www.w3.org/2000/svg" xmlns:xlink="http://www.w3.org/1999/xlink" x="0px" y="0px"
	 viewBox="0 0 2500 2438" style="enable-background:new 0 0 2500 2438;" xml:space="preserve">
<style type="text/css">
	.st0{fill:#FFFFFF;}
</style>
<path class="st0" d="M442.71,0.25h1614.58c244.79,0,442.71,197.92,442.71,442.71v1552.08c0,244.79-197.92,442.71-442.71,442.71
	H442.71C197.92,2437.75,0,2239.83,0,1995.04V442.96C0,198.17,197.92,0.25,442.71,0.25z"/>
<g>
	<path d="M593.75,1708.58V635.67c0-7.29,3.12-11.46,10.42-11.46c17.71,0,34.38,0,58.33-1.04c25-1.04,51.04-1.04,79.17-2.08
		c28.12-1.04,58.33-1.04,90.62-2.08s63.54-1.04,94.79-1.04c85.42,0,156.25,10.42,214.58,32.29c52.08,17.71,100,46.88,139.58,85.42
		c33.33,33.33,59.38,73.96,76.04,118.75c15.62,43.75,23.96,88.54,23.96,135.42c0,89.58-20.83,163.54-62.5,221.88
		c-41.67,58.33-100,102.08-167.71,127.08c-70.83,26.04-148.96,35.42-234.38,35.42c-25,0-41.67,0-52.08-1.04
		c-10.42-1.04-25-1.04-44.79-1.04v334.38c1.04,7.29-4.17,13.54-11.46,14.58H606.25c-8.33,0-12.5-4.17-12.5-13.54V1708.58z
		 M820.83,826.29v350c14.58,1.04,28.12,2.08,40.63,2.08h55.21c40.62,0,81.25-6.25,119.79-18.75c33.33-9.38,62.5-29.17,85.42-55.21
		c21.88-26.04,32.29-61.46,32.29-107.29c1.04-32.29-7.29-64.58-23.96-92.71c-17.71-27.08-42.71-47.92-72.92-59.37
		c-38.54-15.62-80.21-21.88-122.92-20.83c-27.08,0-51.04,0-70.83,1.04C842.71,824.21,828.12,825.25,820.83,826.29L820.83,826.29z
		 M1531.25,887.75h182.29c10.42,0,18.75,7.29,21.88,16.67c3.13,8.33,5.21,16.67,6.25,26.04c2.08,10.42,4.17,21.88,5.21,32.29
		c1.04,11.46,2.08,23.96,2.08,37.5c31.25-36.46,68.75-66.67,111.46-89.58c47.92-27.08,103.12-40.62,158.33-40.62
		c7.29-1.04,13.54,4.17,14.58,11.46v207.29c0,8.33-5.21,11.46-16.67,11.46c-37.5-1.04-76.04,2.08-112.5,10.42
		c-30.21,6.25-59.38,15.62-87.5,28.12c-19.79,9.38-38.54,21.87-53.12,38.54v531.25c0,10.42-4.17,14.58-13.54,14.58h-205.21
		c-8.33,1.04-15.62-4.17-16.67-12.5v-581.25c0-25,0-51.04-1.04-78.12c-1.04-27.08-1.04-54.17-2.08-81.25
		c0-23.96-2.08-46.88-4.17-70.83c-1.04-5.21,2.08-10.42,7.29-11.46C1528.12,886.71,1530.21,886.71,1531.25,887.75L1531.25,887.75z"
		/>
</g>
</svg>
