<?xml version="1.0" encoding="UTF-8"?>
<svg id="Calque_1" data-name="Calque 1" xmlns="http://www.w3.org/2000/svg" version="1.1" viewBox="0 0 2500 1499">
  <defs>
    <style>
      .cls-1 {
        fill: #fff;
        stroke-width: 0px;
      }
    </style>
  </defs>
  <path class="cls-1" d="M1250,0C916.8,0,708.5,166.6,625.2,499.6c125-166.6,270.7-229,437.3-187.4,95.1,23.7,163,92.7,238.2,169,122.5,124.3,264.3,268.2,574,268.2s541.5-166.6,624.7-499.7c-124.9,166.6-270.7,229-437.3,187.4-95-23.7-163-92.7-238.2-169C1701.5,143.9,1559.7,0,1250,0h0ZM625.2,749.5c-333.2,0-541.5,166.6-624.7,499.7,124.9-166.6,270.7-229,437.3-187.4,95,23.8,163,92.7,238.2,169,122.5,124.3,264.3,268.2,574,268.2s541.5-166.6,624.8-499.7c-125,166.6-270.7,229-437.3,187.4-95.1-23.7-163-92.7-238.2-169-122.5-124.3-264.3-268.2-574-268.2h0Z"/>
</svg>